<svg id="Layer_1" enable-background="new 0 0 510 510" height="512" viewBox="0 0 510 510" width="512" xmlns="http://www.w3.org/2000/svg"><g id="XMLID_776_"><g id="XMLID_774_"><path id="XMLID_784_" d="m0 255c0 140.932 114.049 255 255 255l15-255-15-255c-140.931 0-255 114.05-255 255z" fill="#fdbf13"/><path id="XMLID_781_" d="m255 0v510c140.932 0 255-114.049 255-255 0-140.931-114.049-255-255-255z" fill="#ff9313"/><path id="XMLID_778_" d="m30 255c0 124.065 100.935 225 225 225l15-225-15-225c-124.065 0-225 100.935-225 225z" fill="#ffda40"/><path id="XMLID_775_" d="m255 30v450c124.065 0 225-100.935 225-225s-100.935-225-225-225z" fill="#fdbf13"/></g><path id="XMLID_2103_" d="m230.744 366.693 19.086-229.03c1.717-.362 3.441-.673 5.17-.959l10-15.204-10-15.115c-.865.114-1.73.226-2.593.355l2.541-30.494-29.896-2.492-3.415 40.979c-117.135 44.173-131.562 205.98-22.49 269.87l-4.096 49.151 29.896 2.492 3.216-38.598c8.689 2.829 17.665 4.849 26.835 6.048l10.002-15.696-10-14.626c-8.343-1.377-16.466-3.612-24.256-6.681zm-28.748-16.264c-69.672-53.357-60.438-160.915 16.798-201.584z" fill="#ff9313"/><path id="XMLID_783_" d="m290.133 374.027 19.486-233.831c18.312 5.525 35.558 15.505 50.004 29.951l21.213-21.214c-19.674-19.674-43.5-32.719-68.682-39.156l2.794-33.531-29.896-2.492-2.626 31.515c-9.149-.463-18.332-.083-27.426 1.116v30.319c8.244-1.367 16.602-1.888 24.934-1.532l-19.911 238.935c-1.684-.205-3.357-.458-5.022-.733v30.322c.842.11 1.685.224 2.53.319l-2.479 29.738 29.896 2.492 2.65-31.795c35.228-2.964 67.953-18.1 93.238-43.386l-21.213-21.213c-19.003 19.004-43.258 30.844-69.49 34.176z" fill="#ff592e"/></g></svg>